<?xml version="1.0" encoding="UTF-8" standalone="no"?>
<!-- Created with Inkscape (http://www.inkscape.org/) -->

<svg
   version="1.1"
   id="svg1"
   width="91.560028"
   height="86.893341"
   viewBox="0 0 91.560026 86.893341"
   sodipodi:docname="test"
   inkscape:version="1.4.2 (ebf0e94, 2025-05-08)"
   xmlns:inkscape="http://www.inkscape.org/namespaces/inkscape"
   xmlns:sodipodi="http://sodipodi.sourceforge.net/DTD/sodipodi-0.dtd"
   xmlns="http://www.w3.org/2000/svg"
   xmlns:svg="http://www.w3.org/2000/svg">
  <defs
     id="defs1">
    <clipPath
       clipPathUnits="userSpaceOnUse"
       id="clipPath8">
      <path
         d="M 0,595.275 H 841.89 V 0 H 0 Z"
         transform="translate(-424.88191,-332.22681)"
         id="path8" />
    </clipPath>
  </defs>
  <sodipodi:namedview
     id="namedview1"
     pagecolor="#ffffff"
     bordercolor="#000000"
     borderopacity="0.25"
     inkscape:showpageshadow="2"
     inkscape:pageopacity="0.0"
     inkscape:pagecheckerboard="0"
     inkscape:deskcolor="#d1d1d1"
     inkscape:zoom="1.1099912"
     inkscape:cx="560.81528"
     inkscape:cy="396.85001"
     inkscape:window-width="1872"
     inkscape:window-height="1131"
     inkscape:window-x="0"
     inkscape:window-y="0"
     inkscape:window-maximized="1"
     inkscape:current-layer="layer-MC0">
    <inkscape:page
       x="0"
       y="0"
       width="91.560028"
       height="86.893341"
       id="page2"
       margin="0"
       bleed="0" />
  </sodipodi:namedview>
  <g
     id="layer-MC0"
     inkscape:groupmode="layer"
     inkscape:label="BEMER_Group_4c_ZW_REPRO"
     transform="translate(-474.9492,-339.86426)">
    <path
       id="path7"
       d="m 0,0 v -35.63 c 0,-2.36 -1.91,-4.28 -4.27,-4.28 -2.36,0 -4.28,1.92 -4.28,4.28 v 34.18 l -7.56,-13.11 c -0.54,-0.93 -1.25,-1.74 -2.09,-2.39 -1.38,-1.07 -3.11,-1.71 -4.99,-1.71 -1.63,0 -3.14,0.47 -4.41,1.29 -0.9,0.58 -1.67,1.32 -2.28,2.2 -0.02,0.04 -0.05,0.07 -0.08,0.11 L -34.21,-9 c 0,0 -17.14,-29.7 -26.43,-45.78 -0.06,-0.12 -0.13,-0.24 -0.21,-0.35 -0.77,-1.14 -2.07,-1.89 -3.54,-1.89 -2.36,0 -4.28,1.92 -4.28,4.28 0,0.68 0.16,1.31 0.45,1.88 0.09,0.17 0.19,0.34 0.28,0.51 0.01,0.01 0.02,0.03 0.03,0.04 9.34,16.21 26.66,46.2 26.71,46.29 0.52,0.84 1.19,1.59 1.97,2.19 1.38,1.07 3.11,1.71 4.99,1.71 1.63,0 3.14,-0.48 4.41,-1.3 0.89,-0.57 1.67,-1.31 2.28,-2.18 0.07,-0.1 4.08,-5.82 4.33,-6.18 l 8.02,13.9 c 1.36,2.31 3.81,3.89 6.65,4.02 0.13,0.01 0.26,0.01 0.39,0.01 1.63,0 3.14,-0.47 4.41,-1.29 C -1.49,5.41 0,2.88 0,0"
       style="fill:#f15029;fill-opacity:1;fill-rule:nonzero;stroke:none"
       transform="matrix(1.3333333,0,0,-1.3333333,566.5092,350.73093)"
       clip-path="url(#clipPath8)"
       inkscape:export-filename="test.svg"
       inkscape:export-xdpi="96"
       inkscape:export-ydpi="96" />
  </g>
</svg>
