<svg width="20" height="20" viewBox="0 0 20 20" fill="none" xmlns="http://www.w3.org/2000/svg">
<path d="M6.49997 0.666504C4.31663 0.666504 2.54163 2.4415 2.54163 4.62484C2.54163 6.7665 4.21663 8.49984 6.39997 8.57484C6.46663 8.5665 6.5333 8.5665 6.5833 8.57484C6.59997 8.57484 6.6083 8.57484 6.62497 8.57484C6.6333 8.57484 6.6333 8.57484 6.64163 8.57484C8.77497 8.49984 10.45 6.7665 10.4583 4.62484C10.4583 2.4415 8.6833 0.666504 6.49997 0.666504Z" fill="white"/>
<path d="M10.7333 10.7915C8.4083 9.2415 4.61663 9.2415 2.27497 10.7915C1.21663 11.4998 0.633301 12.4582 0.633301 13.4832C0.633301 14.5082 1.21663 15.4582 2.26663 16.1582C3.4333 16.9415 4.96663 17.3332 6.49997 17.3332C8.0333 17.3332 9.56663 16.9415 10.7333 16.1582C11.7833 15.4498 12.3666 14.4998 12.3666 13.4665C12.3583 12.4415 11.7833 11.4915 10.7333 10.7915Z" fill="white"/>
<path d="M15.6583 5.1165C15.7916 6.73317 14.6416 8.14984 13.05 8.3415C13.0416 8.3415 13.0416 8.3415 13.0333 8.3415H13.0083C12.9583 8.3415 12.9083 8.3415 12.8666 8.35817C12.0583 8.39984 11.3166 8.1415 10.7583 7.6665C11.6166 6.89984 12.1083 5.74984 12.0083 4.49984C11.95 3.82484 11.7166 3.20817 11.3666 2.68317C11.6833 2.52484 12.05 2.42484 12.425 2.3915C14.0583 2.24984 15.5166 3.4665 15.6583 5.1165Z" fill="white"/>
<path d="M17.325 12.8248C17.2583 13.6332 16.7416 14.3332 15.875 14.8082C15.0416 15.2665 13.9916 15.4832 12.95 15.4582C13.55 14.9165 13.9 14.2415 13.9666 13.5248C14.05 12.4915 13.5583 11.4998 12.575 10.7082C12.0166 10.2665 11.3666 9.9165 10.6583 9.65817C12.5 9.12484 14.8166 9.48317 16.2416 10.6332C17.0083 11.2498 17.4 12.0248 17.325 12.8248Z" fill="white"/>
</svg>
