<?xml version="1.0" encoding="UTF-8" standalone="no"?>
<svg width="20" height="20" viewBox="0 0 20 20" fill="none" xmlns="http://www.w3.org/2000/svg">
    <path d="M15.475 10.4584H12.1083C10.4333 10.4584 9.625 9.68341 9.625 8.08341V2.41675C9.625 0.816748 10.4417 0.041748 12.1083 0.041748H15.475C17.15 0.041748 17.9583 0.816748 17.9583 2.41675V8.08341C17.9583 9.68341 17.1417 10.4584 15.475 10.4584ZM12.1083 1.29175C11.05 1.29175 10.875 1.57508 10.875 2.41675V8.08341C10.875 8.92508 11.05 9.20841 12.1083 9.20841H15.475C16.5333 9.20841 16.7083 8.92508 16.7083 8.08341V2.41675C16.7083 1.57508 16.5333 1.29175 15.475 1.29175H12.1083V1.29175Z" fill="#7E92A2"/>
    <path d="M12.1084 12.2083H15.4746C16.2445 12.2083 16.717 12.3876 16.999 12.6575C17.2766 12.9232 17.458 13.3619 17.458 14.0833V15.5833C17.458 16.3035 17.275 16.7428 16.9961 17.009C16.7126 17.2795 16.2396 17.4583 15.4746 17.4583H12.1084C11.3385 17.4583 10.866 17.2789 10.584 17.009C10.3065 16.7433 10.125 16.3045 10.125 15.5833V14.0833L10.1338 13.8264C10.1726 13.256 10.3428 12.8905 10.5869 12.6575C10.8704 12.3869 11.3433 12.2083 12.1084 12.2083ZM12.1084 12.4583C11.5807 12.4583 11.0756 12.5174 10.7412 12.8518C10.4032 13.1899 10.375 13.6762 10.375 14.0833V15.5833C10.375 15.9903 10.4032 16.4766 10.7412 16.8147C11.0756 17.1491 11.5807 17.2083 12.1084 17.2083H15.4746C16.0023 17.2083 16.5074 17.1491 16.8418 16.8147C17.1799 16.4766 17.208 15.9903 17.208 15.5833V14.0833C17.208 13.6762 17.1799 13.1899 16.8418 12.8518C16.5074 12.5175 16.0023 12.4583 15.4746 12.4583H12.1084Z" stroke="#7E92A2"/>
    <path d="M5.89163 17.9584H2.52496C0.849959 17.9584 0.041626 17.1834 0.041626 15.5834V9.91675C0.041626 8.31675 0.858293 7.54175 2.52496 7.54175H5.89163C7.56663 7.54175 8.37496 8.31675 8.37496 9.91675V15.5834C8.37496 17.1834 7.55829 17.9584 5.89163 17.9584ZM2.52496 8.79175C1.46663 8.79175 1.29163 9.07508 1.29163 9.91675V15.5834C1.29163 16.4251 1.46663 16.7084 2.52496 16.7084H5.89163C6.94996 16.7084 7.12496 16.4251 7.12496 15.5834V9.91675C7.12496 9.07508 6.94996 8.79175 5.89163 8.79175H2.52496V8.79175Z" fill="#7E92A2"/>
    <path d="M5.89163 6.29175H2.52496C0.849959 6.29175 0.041626 5.51675 0.041626 3.91675V2.41675C0.041626 0.816748 0.858293 0.041748 2.52496 0.041748H5.89163C7.56663 0.041748 8.37496 0.816748 8.37496 2.41675V3.91675C8.37496 5.51675 7.55829 6.29175 5.89163 6.29175ZM2.52496 1.29175C1.46663 1.29175 1.29163 1.57508 1.29163 2.41675V3.91675C1.29163 4.75841 1.46663 5.04175 2.52496 5.04175H5.89163C6.94996 5.04175 7.12496 4.75841 7.12496 3.91675V2.41675C7.12496 1.57508 6.94996 1.29175 5.89163 1.29175H2.52496V1.29175Z" fill="#7E92A2"/>
</svg>
